<?xml version="1.0" encoding="UTF-8"?>
<svg id="Layer_1" data-name="Layer 1" xmlns="http://www.w3.org/2000/svg" viewBox="0 0 517.79 289.02">
  <defs>
    <style>
      .cls-1 {
        stroke: #e6e7e8;
      }

      .cls-1, .cls-2, .cls-3, .cls-4, .cls-5 {
        stroke-miterlimit: 10;
      }

      .cls-1, .cls-3 {
        stroke-width: 3px;
      }

      .cls-1, .cls-3, .cls-5 {
        fill: none;
      }

      .cls-6 {
        font-size: 8.31px;
      }

      .cls-6, .cls-2, .cls-7, .cls-8 {
        fill: #fff;
      }

      .cls-6, .cls-8 {
        font-family: Bahnschrift, Bahnschrift;
        font-variation-settings: 'wght' 400, 'wdth' 100;
      }

      .cls-2 {
        stroke: #f1f2f2;
        stroke-width: 5px;
      }

      .cls-9 {
        letter-spacing: -.02em;
      }

      .cls-3, .cls-4, .cls-5 {
        stroke: #231f20;
      }

      .cls-10 {
        letter-spacing: 0em;
      }

      .cls-7, .cls-11, .cls-12, .cls-13, .cls-14 {
        stroke-width: 0px;
      }

      .cls-15 {
        letter-spacing: 0em;
      }

      .cls-11 {
        fill: #231f20;
      }

      .cls-12 {
        fill: #f1f2f2;
      }

      .cls-16 {
        letter-spacing: -.02em;
      }

      .cls-4 {
        fill: #414042;
      }

      .cls-4, .cls-5 {
        stroke-width: 7px;
      }

      .cls-8 {
        font-size: 15px;
      }

      .cls-17 {
        letter-spacing: -.02em;
      }

      .cls-13 {
        fill: #2b7346;
      }

      .cls-18 {
        letter-spacing: 0em;
      }

      .cls-14 {
        fill: #39b54a;
      }
    </style>
  </defs>
  <rect class="cls-14" width="517.79" height="289.02"/>
  <polygon class="cls-13" points="498.8 12.58 498.8 272.23 16.25 272.23 16.25 186.01 57.7 186.01 57.7 170.69 16.25 170.69 16.25 12.58 498.8 12.58"/>
  <polyline class="cls-5" points="222.11 44.12 222.11 134.5 41.85 134.5"/>
  <polyline class="cls-5" points="380.66 134.5 380.66 72.46 428.91 72.46"/>
  <polyline class="cls-5" points="222.11 206.81 104.91 206.81 104.91 134.5"/>
  <line class="cls-4" x1="380.66" y1="134.5" x2="380.66" y2="206.81"/>
  <line class="cls-4" x1="16.06" y1="191.95" x2="42.62" y2="191.95"/>
  <line class="cls-4" x1="16.06" y1="169.05" x2="42.62" y2="169.05"/>
  <rect class="cls-11" x="42.23" y="165.52" width="15.32" height="29.83"/>
  <g>
    <g>
      <circle class="cls-12" cx="251.34" cy="106.74" r="4.8"/>
      <rect class="cls-12" x="245.1" y="112.47" width="12.5" height="12.5" rx="3.38" ry="3.38"/>
    </g>
    <circle class="cls-1" cx="251.34" cy="113.86" r="15.33"/>
  </g>
  <text class="cls-8" transform="translate(273.62 119.82)"><tspan x="0" y="0">Du är här</tspan></text>
  <text class="cls-8" transform="translate(96.48 71.8)"><tspan x="0" y="0">S</tspan><tspan class="cls-17" x="9.24" y="0">o</tspan><tspan x="17.12" y="0">vrum</tspan></text>
  <text class="cls-8" transform="translate(394.68 138.81)"><tspan x="0" y="0">Badrum</tspan></text>
  <text class="cls-8" transform="translate(175.56 184.14)"><tspan class="cls-18" x="0" y="0">K</tspan><tspan x="9.48" y="0">ontor</tspan></text>
  <text class="cls-8" transform="translate(94.6 259.64)"><tspan class="cls-16" x="0" y="0">V</tspan><tspan x="8.44" y="0">a</tspan><tspan class="cls-18" x="16.42" y="0">r</tspan><tspan x="22.68" y="0">dagsrum</tspan></text>
  <g>
    <rect class="cls-7" x="36.66" y="55.06" width="54.62" height="15.05"/>
    <path class="cls-7" d="m55.82,53.8h-12.94c0-2.03,2.89-3.67,6.47-3.67s6.47,1.64,6.47,3.67Z"/>
    <rect class="cls-7" x="37.9" y="71.8" width="2.21" height="3.39"/>
    <rect class="cls-7" x="87.84" y="71.8" width="2.21" height="3.39"/>
    <rect class="cls-7" x="36.66" y="41.56" width="4.42" height="13.49"/>
  </g>
  <g>
    <rect class="cls-7" x="38.87" y="238.52" width="46.64" height="12.77" rx="4" ry="4"/>
    <rect class="cls-7" x="38.87" y="252.47" width="46.64" height="7.16" rx="3" ry="3"/>
    <rect class="cls-7" x="79.5" y="259.98" width="2.99" height="3.37"/>
    <rect class="cls-7" x="41.33" y="259.98" width="2.99" height="3.37"/>
  </g>
  <g>
    <rect class="cls-7" x="121.72" y="166.49" width="50.9" height="4.83"/>
    <rect class="cls-7" x="163.7" y="171.32" width="8.92" height="14.98"/>
    <rect class="cls-7" x="121.72" y="171.32" width="8.92" height="14.98"/>
    <rect class="cls-7" x="131.67" y="172.37" width="31" height="7.49"/>
    <path class="cls-7" d="m154.37,158.06v7.65h-14.39v-7.65c0-1.74,1.4-3.15,3.14-3.15h8.1c1.74,0,3.15,1.41,3.15,3.15Z"/>
    <g>
      <rect class="cls-7" x="146.32" y="180.23" width="1.9" height="2.59"/>
      <rect class="cls-7" x="145.42" y="182.45" width="3.86" height="2.74"/>
      <rect class="cls-7" x="142.68" y="184.14" width="9.18" height="1.1" rx=".55" ry=".55"/>
      <circle class="cls-7" cx="142.83" cy="185.68" r=".79"/>
      <circle class="cls-7" cx="151.57" cy="185.68" r=".79"/>
      <circle class="cls-7" cx="147.27" cy="186.34" r=".79"/>
    </g>
    <rect class="cls-7" x="137.25" y="164.99" width="2.3" height="1.02" rx=".38" ry=".38"/>
    <rect class="cls-7" x="154.73" y="164.99" width="2.3" height="1.02" rx=".38" ry=".38"/>
  </g>
  <g>
    <path class="cls-7" d="m445.52,111.24c0,2.87-1.17,5.48-3.05,7.36-1.88,1.88-4.48,3.05-7.36,3.05h-32.14c-5.75,0-10.4-4.66-10.4-10.4,0-.86.1-1.7.3-2.49h52.34c.2.8.3,1.64.3,2.49Z"/>
    <path class="cls-7" d="m398.4,106.45v-13.59s-.54-7.34,7.34-7.34h.7s.58-.48,2.01-1.04c4.07-1.61,1.61,3.08,1.61,3.08,0,0-2.33,5.2-3.8-.38,0,0-2.95-.29-4.51,1.59s-1.49,3.62-1.49,3.62l-.08,14.06h-1.77Z"/>
    <rect class="cls-7" x="402.93" y="122.87" width="6.21" height="2.34"/>
    <rect class="cls-7" x="430.57" y="122.87" width="6.21" height="2.34"/>
  </g>
  <g>
    <g>
      <circle class="cls-2" cx="201.57" cy="110.3" r="8.97"/>
      <g>
        <line class="cls-3" x1="208.28" y1="103.6" x2="194.87" y2="117.01"/>
        <line class="cls-3" x1="194.87" y1="103.6" x2="208.28" y2="117.01"/>
      </g>
    </g>
    <text class="cls-6" transform="translate(186.76 129.05)"><tspan class="cls-9" x="0" y="0">P</tspan><tspan class="cls-15" x="4.97" y="0">r</tspan><tspan class="cls-10" x="8.44" y="0">odukt</tspan></text>
  </g>
</svg>