<?xml version="1.0" encoding="UTF-8"?>
<svg id="Layer_1" data-name="Layer 1" xmlns="http://www.w3.org/2000/svg" xmlns:xlink="http://www.w3.org/1999/xlink" viewBox="0 0 471.54 484.28">
  <defs>
    <style>
      .cls-1 {
        fill: #005548;
      }

      .cls-1, .cls-2, .cls-3, .cls-4, .cls-5, .cls-6, .cls-7, .cls-8, .cls-9, .cls-10, .cls-11, .cls-12, .cls-13, .cls-14, .cls-15, .cls-16, .cls-17, .cls-18 {
        stroke-width: 0px;
      }

      .cls-2 {
        fill: #201751;
      }

      .cls-3 {
        fill: #d8dbde;
      }

      .cls-4 {
        fill: #a64924;
      }

      .cls-19 {
        filter: url(#drop-shadow-3);
      }

      .cls-20 {
        filter: url(#drop-shadow-1);
      }

      .cls-5 {
        fill: url(#Orange_Yellow);
      }

      .cls-6 {
        fill: #939598;
      }

      .cls-7 {
        fill: #a7a9ac;
      }

      .cls-21 {
        filter: url(#drop-shadow-2);
      }

      .cls-8 {
        fill: #bcbec0;
      }

      .cls-9 {
        fill: #2c2f87;
      }

      .cls-10 {
        fill: #02763c;
      }

      .cls-11 {
        fill: #bebebd;
      }

      .cls-12 {
        fill: #48a671;
      }

      .cls-13 {
        fill: #bd2626;
      }

      .cls-14 {
        fill: #68be57;
      }

      .cls-15 {
        fill: #186db6;
      }

      .cls-16 {
        fill: #533311;
      }

      .cls-17 {
        fill: #753617;
      }

      .cls-18 {
        fill: #2a286e;
      }
    </style>
    <filter id="drop-shadow-1" filterUnits="userSpaceOnUse">
      <feOffset dx="7" dy="7"/>
      <feGaussianBlur result="blur" stdDeviation="5"/>
      <feFlood flood-color="#231f20" flood-opacity=".18"/>
      <feComposite in2="blur" operator="in"/>
      <feComposite in="SourceGraphic"/>
    </filter>
    <filter id="drop-shadow-2" filterUnits="userSpaceOnUse">
      <feOffset dx="7" dy="7"/>
      <feGaussianBlur result="blur-2" stdDeviation="5"/>
      <feFlood flood-color="#231f20" flood-opacity=".18"/>
      <feComposite in2="blur-2" operator="in"/>
      <feComposite in="SourceGraphic"/>
    </filter>
    <linearGradient id="Orange_Yellow" data-name="Orange, Yellow" x1="0" y1="235.77" x2="471.54" y2="235.77" gradientUnits="userSpaceOnUse">
      <stop offset="0" stop-color="#fff33b"/>
      <stop offset=".04" stop-color="#fee62d"/>
      <stop offset=".12" stop-color="#fdd51b"/>
      <stop offset=".2" stop-color="#fdca0f"/>
      <stop offset=".28" stop-color="#fdc70c"/>
      <stop offset=".67" stop-color="#f3903f"/>
      <stop offset=".89" stop-color="#ed683c"/>
      <stop offset="1" stop-color="#e93e3a"/>
    </linearGradient>
    <filter id="drop-shadow-3" filterUnits="userSpaceOnUse">
      <feOffset dx="7" dy="7"/>
      <feGaussianBlur result="blur-3" stdDeviation="5"/>
      <feFlood flood-color="#231f20" flood-opacity=".18"/>
      <feComposite in2="blur-3" operator="in"/>
      <feComposite in="SourceGraphic"/>
    </filter>
  </defs>
  <g class="cls-20">
    <rect class="cls-7" x="305.75" y="235.87" width="74.51" height="29.73" rx="14.75" ry="14.75" transform="translate(365.97 -173.52) rotate(56.93)"/>
    <rect class="cls-15" x="274.04" y="233.54" width="74.51" height="75.68" transform="translate(368.86 -137.57) rotate(56.93)"/>
    <rect class="cls-9" x="210.62" y="274.83" width="74.51" height="75.68" transform="translate(374.65 -65.66) rotate(56.93)"/>
    <rect class="cls-18" x="147.2" y="316.13" width="74.51" height="75.68" transform="translate(380.44 6.25) rotate(56.93)"/>
    <rect class="cls-2" x="83.79" y="357.42" width="74.51" height="75.68" transform="translate(386.23 78.16) rotate(56.93)"/>
    <path class="cls-6" d="m69,384.68l-57.07,37.16,40.65,62.44,57.07-37.16-40.65-62.44Zm-25.42,61.01c-6.09-9.36-3.33-21.96,6.18-28.15s22.16-3.62,28.25,5.73c6.1,9.36,3.33,21.97-6.18,28.16-9.5,6.19-22.15,3.62-28.25-5.75Z"/>
  </g>
  <g class="cls-21">
    <rect class="cls-8" x="369.65" y="309.61" width="72.72" height="28.79" rx="14.34" ry="14.34" transform="translate(577.56 -166.29) rotate(70.69)"/>
    <rect class="cls-13" x="335.08" y="299.48" width="72.72" height="73.27" transform="translate(565.85 -125.55) rotate(70.69)"/>
    <rect class="cls-4" x="265.92" y="323.71" width="72.72" height="73.27" transform="translate(542.42 -44.07) rotate(70.69)"/>
    <rect class="cls-17" x="196.77" y="347.93" width="72.72" height="73.27" transform="translate(519 37.41) rotate(70.69)"/>
    <rect class="cls-16" x="127.62" y="372.16" width="72.72" height="73.27" transform="translate(495.57 118.89) rotate(70.69)"/>
    <path class="cls-8" d="m117.38,386.6l-62.23,21.8,24.04,68.63,62.23-21.8-24.04-68.63Zm-37.86,51.79c-3.6-10.28,1.88-21.57,12.24-25.2,10.37-3.63,21.7,1.76,25.3,12.05s-1.88,21.58-12.25,25.21c-10.36,3.63-21.69-1.77-25.29-12.06Z"/>
  </g>
  <polygon class="cls-5" points="471.54 186.51 471.54 267.95 288.92 267.95 288.92 471.54 207.47 471.54 207.47 267.95 0 267.95 0 186.51 207.47 186.51 207.47 0 288.92 0 288.92 186.51 471.54 186.51"/>
  <g class="cls-19">
    <rect class="cls-11" x="383.84" y="418.85" width="78.17" height="30.71" rx="15.35" ry="15.35" transform="translate(857.13 11.28) rotate(90)"/>
    <rect class="cls-14" x="344.76" y="395.12" width="78.17" height="78.17" transform="translate(818.05 50.36) rotate(90)"/>
    <rect class="cls-12" x="266.59" y="395.12" width="78.17" height="78.17" transform="translate(739.88 128.53) rotate(90)"/>
    <rect class="cls-10" x="188.42" y="395.12" width="78.17" height="78.17" transform="translate(661.71 206.7) rotate(90)"/>
    <rect class="cls-1" x="110.25" y="395.12" width="78.17" height="78.17" transform="translate(583.54 284.87) rotate(90)"/>
    <path class="cls-3" d="m110.24,395.12H39.9s0,78.17,0,78.17h70.35v-78.17Zm-56.39,39.08c0-11.71,9.5-21.21,21.21-21.21,11.72,0,21.22,9.5,21.22,21.21s-9.5,21.22-21.22,21.22c-11.71,0-21.21-9.5-21.21-21.22Z"/>
  </g>
</svg>