<?xml version="1.0" encoding="UTF-8"?>
<svg id="Layer_1" data-name="Layer 1" xmlns="http://www.w3.org/2000/svg" viewBox="0 0 600 600">
  <defs>
    <style>
      .cls-1 {
        stroke-width: 40px;
      }

      .cls-1, .cls-2 {
        fill: none;
        stroke: #231f20;
        stroke-miterlimit: 10;
      }

      .cls-2 {
        stroke-width: 35px;
      }

      .cls-3 {
        fill: #231f20;
        stroke-width: 0px;
      }
    </style>
  </defs>
  <g>
    <path class="cls-3" d="m435.22,281.31c-48.66-9.25-85.17-46.63-85.17-91.2s36.6-82.04,85.35-91.23c-16.33,19.31-42.47,50.98-42.28,91.3.2,40.54,25.8,71.87,42.1,91.14Z"/>
    <path class="cls-3" d="m397.92,128.08c-10.04,17.36-17.92,38.2-17.8,62.16.12,23.94,7.89,44.64,17.76,61.88-21.26-14.76-34.83-37.07-34.83-62s13.59-47.28,34.87-62.03m60.79-44.36c-67.19,0-121.66,47.64-121.66,106.4s54.47,106.4,121.66,106.4c9.35-9.4-52.3-47.57-52.59-106.4-.28-57.96,62.07-96.86,52.59-106.4h0Z"/>
  </g>
  <rect class="cls-1" x="82.16" y="436.33" width="323.54" height="70.95" rx="35.48" ry="35.48"/>
  <rect class="cls-2" x="104.7" y="361.65" width="85.21" height="77.32" rx="30.04" ry="30.04"/>
  <rect class="cls-1" x="121.58" y="522.45" width="3.03" height="24.26"/>
  <rect class="cls-1" x="356.58" y="517.94" width="1.21" height="20.01"/>
  <path class="cls-3" d="m560,40v520H40V40h520M600,0H0v600h600V0h0Z"/>
</svg>