<?xml version="1.0" encoding="UTF-8"?>
<svg id="Layer_1" data-name="Layer 1" xmlns="http://www.w3.org/2000/svg" viewBox="0 0 182.47 135.78">
  <defs>
    <style>
      .cls-1, .cls-2 {
        stroke-width: 0px;
      }

      .cls-2 {
        fill: #3ad64f;
      }
    </style>
  </defs>
  <circle class="cls-2" cx="91.38" cy="67.89" r="67.89"/>
  <g>
    <path class="cls-1" d="m48.02,82.4c1.4.2,2.85.39,4.35.57l-1.52,12.13c-1.31-.16-2.6-.33-3.86-.5-7.34-.99-13.82-2.18-19.46-3.55C9.24,86.57,0,80.1,0,71.7s8.23-14.15,25.15-18.66c-1,4.28-1.58,8.71-1.7,13.26-6.81,2.24-9.87,4.32-10.84,5.42,1.14,1.33,4.73,3.44,11.47,5.59,5.64,1.8,13.48,3.64,23.95,5.1Z"/>
    <path class="cls-1" d="m52.02,60.48c-.73.09-1.46.18-2.17.27l.22-2.55,1.95,2.27Z"/>
    <path class="cls-1" d="m182.47,71.7c0,9.59-12.36,15.59-27.52,19.34-12.4,3.06-26.67,4.63-37.62,5.43-6.32.46-12.87.75-19.49.87l-.22-12.22c6.38-.11,12.71-.39,18.8-.83,19.75-1.44,33.36-4.22,41.97-6.95,6.66-2.13,10.3-4.21,11.47-5.62-.97-1.1-4.03-3.18-10.84-5.43-.12-4.54-.7-8.97-1.7-13.24,16.91,4.51,25.15,10.64,25.15,18.66Z"/>
    <polygon class="cls-1" points="78.24 91.05 46.03 117.93 44.94 118.85 45.08 117.09 46.99 94.6 48.02 82.4 49.85 60.76 50.07 58.21 52.02 60.48 78.24 91.05"/>
  </g>
</svg>